<svg width="241" height="200" viewBox="0 0 241 200" fill="none" xmlns="http://www.w3.org/2000/svg">
<path d="M30.8025 83.8725L115.838 30.2034L200.873 83.8725V162.177H30.8025V83.8725Z" fill="#E6E7E8"/>
<path fill-rule="evenodd" clip-rule="evenodd" d="M30.4086 162.177C30.4086 162.394 30.5849 162.57 30.8024 162.57H200.873C201.088 162.589 201.278 162.431 201.298 162.216V83.9118C201.298 83.7761 201.226 83.6506 201.109 83.5813L116.043 29.9044C115.914 29.8265 115.753 29.8265 115.625 29.9044L30.5898 83.542C30.4748 83.6121 30.4058 83.7379 30.4086 83.8725V162.177ZM200.519 161.784H31.1726V84.0928L115.838 30.6912L200.519 84.0928V161.784Z" fill="#231F20"/>
<path d="M136.553 62.7934C139.381 58.1275 140.098 52.4546 139.838 47.0098C139.649 41.0528 138.077 35.2212 135.246 29.9751C134.096 27.7222 132.408 25.7872 130.331 24.3414C127.779 22.7678 126.038 23.83 123.541 23.4051C121.43 23.0432 119.225 21.5403 116.885 21.1548C111.489 20.2331 105.943 21.3917 101.369 24.3965C93.3661 29.802 89.6719 40.1329 81.4016 45.1529C73.2966 50.0469 62.9232 48.5755 53.8336 51.2822C49.9969 52.4308 46.4222 54.3179 43.3105 56.8372C41.1609 58.4811 39.4018 60.5796 38.1593 62.9822C36.0247 67.4356 36.584 72.7388 38.1593 77.4362C39.7346 82.2672 42.3969 86.878 46.5242 89.8758C49.982 92.37 54.2274 93.5188 58.4256 94.2741C64.1361 95.3049 70.0514 95.6904 75.7541 94.4551C79.9628 93.6066 83.8855 91.7002 87.1514 88.9159C88.5535 87.6648 89.3254 85.9574 90.6329 84.7143C92.4366 83.0069 95.2485 81.9604 97.3595 80.6543C100.66 78.6007 103.968 76.4133 107.733 75.4376C117.295 72.9513 130.788 72.2746 136.553 62.7934Z" fill="white"/>
<path fill-rule="evenodd" clip-rule="evenodd" d="M58.339 94.6597C61.57 95.2704 64.8492 95.5917 68.1375 95.6197C70.7195 95.6492 73.2971 95.3986 75.825 94.8722C80.1197 94.0077 84.1186 92.0511 87.435 89.1913C88.1536 88.5099 88.793 87.7498 89.3411 86.9253C89.8046 86.2299 90.332 85.5793 90.9165 84.9818C92.2079 83.8935 93.6414 82.9856 95.1777 82.283C96.0047 81.8581 96.7924 81.4254 97.58 80.9612L98.3677 80.4497L98.4322 80.4096C101.397 78.5652 104.449 76.6667 107.82 75.7996C109.626 75.3278 111.555 74.9344 113.597 74.5176L113.908 74.4542L113.909 74.454C122.463 72.7073 132.135 70.7322 136.86 63.0059C139.412 58.8279 140.507 53.4775 140.2 47.0255C140.019 41.0091 138.43 35.1186 135.561 29.8256C134.388 27.5179 132.655 25.5404 130.52 24.074C129.174 23.2437 127.58 22.9123 126.014 23.1376C125.212 23.2126 124.403 23.1941 123.604 23.0826C122.548 22.845 121.521 22.4941 120.54 22.0361C119.388 21.4753 118.171 21.0578 116.917 20.7929C111.433 19.8707 105.804 21.0601 101.164 24.1212C97.2571 26.7806 94.327 30.6282 91.4993 34.3498L91.4713 34.3867C88.4948 38.3015 85.4212 42.3441 81.2125 44.8854C76.3763 47.8045 70.8234 48.4182 64.9474 49.0634C61.162 49.3719 57.4112 50.0144 53.7391 50.9833C49.8589 52.1441 46.2438 54.0526 43.0979 56.6012C40.8982 58.2791 39.1052 60.4306 37.8521 62.8957C35.434 67.8842 36.5052 73.6831 37.797 77.6172C39.6086 83.1249 42.5308 87.5075 46.2879 90.2063C50.045 92.9051 54.7 94.0067 58.339 94.6597ZM101.573 24.7585C105.043 22.4494 109.124 21.2275 113.294 21.2493C114.496 21.2585 115.694 21.369 116.878 21.5797C118.064 21.8272 119.217 22.2155 120.312 22.7364C121.338 23.2208 122.416 23.5876 123.525 23.83C124.379 23.9501 125.243 23.9738 126.101 23.9009C127.514 23.6654 128.965 23.9446 130.189 24.6877C132.218 26.0984 133.864 27.9912 134.978 30.1954C137.793 35.3889 139.35 41.1694 139.523 47.0728C139.822 53.3831 138.735 58.6233 136.293 62.6518C131.756 70.1109 122.226 72.0543 113.806 73.7617C111.624 74.2024 109.608 74.6194 107.686 75.1151C104.199 75.9994 101.095 77.9347 98.093 79.8059L98.0447 79.836L97.2098 80.3553C96.4773 80.8038 95.6896 81.2129 94.8469 81.6457C93.2492 82.3778 91.7598 83.3256 90.4202 84.4625C89.7967 85.0892 89.2349 85.7742 88.7425 86.5083C88.2232 87.2891 87.6182 88.0096 86.9388 88.6563C83.7159 91.4308 79.831 93.3278 75.6596 94.164C70.7367 95.2341 65.1286 95.1712 58.4965 93.9831C54.9363 93.3379 50.3522 92.2442 46.7368 89.6398C43.1215 87.0354 40.2781 82.8023 38.5137 77.3811C37.2456 73.565 36.2295 67.9865 38.5137 63.2183C39.7293 60.8606 41.457 58.8041 43.5705 57.1992C46.6435 54.7036 50.1755 52.8326 53.9675 51.6914C57.5954 50.7342 61.3016 50.1022 65.042 49.803L65.096 49.797C70.7583 49.1695 76.6284 48.5188 81.5827 45.5227C85.9132 42.9162 89.0359 38.8056 92.0544 34.8325L92.0743 34.8062L92.1152 34.7525C94.8986 31.0948 97.7719 27.3189 101.573 24.7585Z" fill="#231F20"/>
<path d="M168.689 55.0827L164.546 70.6618L174.526 72.44L180.213 51.6286C180.213 51.6286 171.344 44.8462 169.973 44.799C168.603 44.7518 168.689 55.0827 168.689 55.0827Z" fill="white"/>
<path fill-rule="evenodd" clip-rule="evenodd" d="M174.455 72.8333H174.526C174.692 72.8311 174.838 72.7234 174.888 72.5657L180.583 51.7543C180.623 51.5995 180.567 51.4356 180.441 51.3373C178.937 50.1964 171.391 44.4762 169.981 44.429C169.785 44.4213 169.596 44.4988 169.461 44.6414C168.296 45.7666 168.296 53.4145 168.296 55.0826L164.184 70.5908C164.153 70.6966 164.169 70.8104 164.228 70.9036C164.287 70.9968 164.382 71.0605 164.491 71.0786L174.455 72.8333ZM174.258 71.9914L165.074 70.3705L169.107 55.2084C169.111 55.1745 169.111 55.1401 169.107 55.1062C169.075 50.7 169.422 45.6092 169.981 45.1922C170.737 45.2158 175.511 48.5362 179.772 51.7779L174.258 71.9914Z" fill="#231F20"/>
<path d="M157.906 44.8933C157.906 44.8933 159.316 48.0406 161.349 48.552C163.381 49.0634 167.799 46.8839 168.311 47.1672C168.823 47.4504 180.481 56.1684 181.615 56.4281C182.749 56.6877 184.836 53.9417 185.726 50.6764C185.726 50.6764 174.384 42.9498 173.644 42.1315C172.903 41.3132 172.021 36.4192 170.919 34.6252L157.906 44.8933Z" fill="white"/>
<path fill-rule="evenodd" clip-rule="evenodd" d="M181.489 56.8452C181.57 56.8528 181.652 56.8528 181.733 56.8452C183.269 56.8452 185.277 53.7136 186.089 50.8496C186.137 50.6887 186.072 50.5156 185.931 50.4247C181.386 47.3246 174.439 42.5093 173.919 41.9349C173.434 40.9625 173.069 39.9347 172.833 38.8741C172.469 37.3603 171.941 35.8907 171.257 34.4915C171.195 34.3984 171.099 34.3333 170.989 34.3106C170.878 34.2923 170.764 34.3208 170.674 34.3893L157.686 44.6179C157.544 44.727 157.497 44.9209 157.576 45.0822C157.577 45.0844 157.578 45.0874 157.58 45.0912C157.686 45.319 159.124 48.3963 161.278 48.9691C162.641 49.329 164.876 48.5917 166.52 48.0496L166.547 48.0406C166.734 47.9751 166.936 47.8957 167.132 47.8189C167.593 47.6374 168.017 47.4707 168.122 47.5371C168.272 47.6315 169.485 48.5048 170.879 49.5277C177.062 54.0362 180.78 56.6721 181.489 56.8452ZM168.5 46.821C168.401 46.7702 168.289 46.7458 168.177 46.7502C167.521 46.8287 166.877 46.9927 166.263 47.2381L166.246 47.2438C164.789 47.7238 162.588 48.4486 161.443 48.1508C159.97 47.781 158.781 45.7431 158.395 45.0035L170.769 35.2233C171.288 36.4574 171.717 37.7276 172.053 39.0236C172.58 40.8176 172.919 41.9506 173.321 42.3912C174.03 43.1859 183.324 49.5434 185.238 50.8417C184.285 54.0755 182.41 56.2472 181.67 56.0505C181.036 55.882 176.224 52.3948 172.877 49.9687C172.316 49.5621 171.796 49.1853 171.344 48.8589C171.129 48.7028 170.928 48.5566 170.74 48.4201C169.31 47.3798 168.647 46.8976 168.5 46.821Z" fill="#231F20"/>
<path d="M170.304 37.5602C170.211 38.3921 170.367 39.2328 170.753 39.9758C171.391 41.1167 174.219 42.6352 174.219 42.6352L176.188 38.7011L172.329 35.9158L170.304 37.5602Z" fill="#231F20"/>
<path fill-rule="evenodd" clip-rule="evenodd" d="M174.038 42.9813C174.093 43.0126 174.155 43.0289 174.219 43.0285C174.26 43.026 174.3 43.0153 174.337 42.997C174.439 42.9662 174.524 42.8952 174.573 42.8003L176.542 38.8662C176.624 38.6945 176.571 38.4893 176.416 38.3784L172.565 35.593C172.422 35.4801 172.219 35.4801 172.076 35.593L170.052 37.2611C169.978 37.3224 169.93 37.4097 169.918 37.505C169.814 38.4211 169.987 39.3473 170.414 40.1645C171.084 41.3683 173.73 42.8239 174.038 42.9813ZM171.1 39.7868C170.778 39.1663 170.634 38.4695 170.682 37.7725L172.344 36.3956L175.684 38.8111L174.053 42.1001C173.14 41.5729 171.509 40.5736 171.1 39.7868Z" fill="#231F20"/>
<path d="M182.655 48.5913C182.655 48.5913 183.686 45.3418 181.867 45.1136C181.833 44.5319 181.498 44.01 180.983 43.7366C180.468 43.4633 179.848 43.4782 179.346 43.776C179.346 43.776 178.764 41.3604 176.857 41.8483C174.951 42.3361 173.439 46.8918 173.707 48.0406C173.975 49.1893 175.455 48.489 176.204 47.4111C176.204 47.4111 175.235 49.205 175.881 49.6771C176.826 50.3695 177.818 49.1421 178.622 48.2451C178.622 48.2451 177.432 50.3459 179.181 50.5348C180.528 50.6843 181.78 47.9697 181.78 47.9697L182.655 48.5913Z" fill="white"/>
<path fill-rule="evenodd" clip-rule="evenodd" d="M179.102 50.936H179.252C180.457 50.936 181.465 49.3466 181.843 48.5441L182.379 48.9139C182.483 48.9842 182.614 49.0016 182.733 48.9611C182.852 48.9235 182.944 48.8289 182.978 48.7093C183.072 48.4811 183.679 46.4905 182.978 45.3968C182.787 45.0955 182.493 44.8743 182.15 44.7752C182.009 44.1893 181.648 43.6798 181.142 43.351C180.653 43.1034 180.083 43.0693 179.567 43.2566C179.338 42.6177 178.914 42.0671 178.354 41.683C177.866 41.3899 177.277 41.3156 176.731 41.4784C174.557 42.0371 172.99 46.8052 173.281 48.1349C173.343 48.572 173.675 48.9223 174.109 49.0083C174.506 49.0635 174.91 48.9771 175.251 48.7644C175.122 49.21 175.26 49.6896 175.605 49.9997C176.385 50.5741 177.141 50.2121 177.795 49.6377C177.799 50.356 178.383 50.936 179.102 50.936ZM178.819 47.9303C178.751 47.8776 178.668 47.8498 178.582 47.8517C178.472 47.8519 178.367 47.8974 178.291 47.9776L178.126 48.1664C177.275 49.1106 176.621 49.7558 176.07 49.3545C175.889 49.2207 176.109 48.371 176.511 47.5841C176.604 47.4004 176.543 47.1759 176.369 47.0648C176.192 46.9567 175.961 47.0049 175.841 47.175C175.505 47.7466 174.924 48.1323 174.266 48.2215C174.211 48.2136 174.109 48.19 174.053 47.9461C173.841 46.9468 175.251 42.6508 176.928 42.2259C177.268 42.1196 177.636 42.1595 177.944 42.336C178.438 42.7186 178.788 43.2565 178.937 43.8625C178.967 43.9754 179.045 44.0699 179.15 44.1221C179.255 44.1696 179.375 44.1696 179.48 44.1221C179.876 43.8929 180.355 43.8581 180.78 44.0277C181.146 44.2988 181.389 44.7032 181.457 45.1529C181.483 45.3279 181.621 45.4653 181.796 45.4912C182.016 45.507 182.216 45.6231 182.34 45.8059C182.598 46.4894 182.623 47.2391 182.41 47.9382L181.969 47.6314C181.874 47.5625 181.751 47.5421 181.639 47.5763C181.528 47.6078 181.436 47.6851 181.386 47.7887C181.016 48.5755 179.977 50.2357 179.189 50.1492C178.756 50.102 178.645 49.9289 178.645 49.8738C178.456 49.504 178.756 48.7486 178.929 48.4418C179.024 48.2675 178.977 48.0502 178.819 47.9303Z" fill="#231F20"/>
<path d="M174.235 38.8427C174.235 38.8427 173.156 36.9701 172.021 38.6145C170.887 40.259 169.524 43.3355 171.415 43.6659C173.305 43.9964 174.723 40.4714 174.235 38.8427Z" fill="white"/>
<path fill-rule="evenodd" clip-rule="evenodd" d="M171.352 44.0671C171.454 44.0749 171.557 44.0749 171.659 44.0671C172.336 44.0354 172.967 43.7144 173.392 43.1859C174.43 41.9536 174.876 40.3292 174.613 38.7403L174.573 38.6538C174.572 38.6521 174.571 38.6502 174.57 38.648C174.491 38.5201 173.921 37.5909 173.069 37.5522C172.494 37.5741 171.973 37.897 171.698 38.402C170.887 39.5665 169.666 41.9034 170.217 43.2174C170.416 43.6827 170.849 44.0066 171.352 44.0671ZM172.344 38.819C172.502 38.5909 172.754 38.3155 173.014 38.3155H173.029C173.384 38.3312 173.738 38.7797 173.864 38.9843C174.034 40.2985 173.649 41.624 172.801 42.643C172.495 43.0624 171.996 43.2968 171.478 43.2646C171.243 43.2469 171.037 43.1018 170.942 42.8869C170.611 42.0922 171.391 40.196 172.344 38.819Z" fill="#231F20"/>
<path d="M168.682 56.1371C168.682 56.1371 167.437 50.1966 167.319 49.1344C167.122 47.3326 167.547 44.5157 169.131 44.0751C170.714 43.6345 174.337 43.2175 173.738 44.8069C173.195 46.2546 170.021 46.53 170.021 46.53C170.021 46.53 172.21 48.7331 171.88 50.9283" fill="white"/>
<path d="M168.682 56.5304C168.497 56.5312 168.336 56.4036 168.296 56.2235C168.248 55.9796 167.051 50.2436 166.933 49.1421C166.728 47.3009 167.122 44.193 169.028 43.6343C170.021 43.359 173.053 42.7924 173.943 43.7602C174.218 44.0657 174.283 44.5057 174.109 44.8775C173.66 46.0892 171.848 46.5692 170.8 46.758C171.462 47.5921 172.525 49.2365 172.265 50.9203C172.244 51.0609 172.15 51.1795 172.017 51.2315C171.885 51.2835 171.735 51.261 171.623 51.1725C171.512 51.084 171.457 50.9428 171.478 50.8023C171.777 48.8274 169.753 46.758 169.737 46.7423C169.63 46.6321 169.593 46.471 169.642 46.3253C169.697 46.1829 169.829 46.0848 169.981 46.0735C170.769 46.0027 172.99 45.6014 173.36 44.6021C173.447 44.3897 173.36 44.3267 173.36 44.2953C172.943 43.831 170.761 43.9727 169.233 44.3897C167.949 44.7438 167.524 47.3088 167.713 49.0241C167.831 50.0548 169.06 55.9402 169.068 55.9953C169.091 56.0978 169.071 56.2052 169.013 56.2929C168.955 56.3805 168.864 56.4407 168.76 56.4595L168.682 56.5304Z" fill="#231F20"/>
<path d="M191.941 33.6102C191.941 33.6102 178.819 32.312 173.463 35.4121C172.117 36.2149 170.827 37.1087 169.603 38.0872C166.697 40.3612 163.964 42.9419 161.837 44.3818C157.615 47.2144 153.535 47.7888 150.755 43.2803C148.392 39.4327 149.77 37.6073 152.968 34.1846C154.543 32.4929 157.883 29.6997 160.758 26.6075C162.457 24.8885 163.891 22.9261 165.011 20.785C167.437 15.6864 166.752 7.87329 166.752 7.87329L191.941 33.6102Z" fill="white"/>
<path fill-rule="evenodd" clip-rule="evenodd" d="M154.677 46.8367C155.091 46.9295 155.514 46.9744 155.937 46.9704C157.741 46.9704 159.789 46.2151 162.073 44.7044C163.576 43.6313 165.022 42.481 166.405 41.2581C167.5 40.3218 168.674 39.3461 169.863 38.4098C171.072 37.4423 172.345 36.5589 173.675 35.7661C178.581 32.9136 190.425 33.8821 191.79 33.9938C191.867 34.0001 191.91 34.0036 191.918 34.0036C192.083 34.0164 192.24 33.9256 192.311 33.7754C192.381 33.6281 192.353 33.4528 192.24 33.3348L167.035 7.57428C166.921 7.45045 166.739 7.41539 166.587 7.48773C166.436 7.55895 166.345 7.7154 166.358 7.88114C166.366 7.95982 167.02 15.6707 164.657 20.6277C163.557 22.733 162.148 24.6613 160.474 26.3478C158.812 28.0946 157.04 29.7784 155.465 31.2419C154.331 32.2884 153.354 33.2011 152.677 33.9249C149.447 37.387 147.88 39.3776 150.424 43.5006C151.312 45.158 152.855 46.368 154.677 46.8367ZM165.374 20.966C167.295 16.8824 167.303 11.233 167.209 8.87254L190.949 33.1617C187.688 32.9178 177.858 32.4615 173.297 35.113C171.924 35.9267 170.608 36.8337 169.359 37.8276C168.327 38.6344 167.325 39.4763 166.347 40.2979C166.19 40.4298 166.033 40.5611 165.878 40.6916C164.519 41.8948 163.096 43.0242 161.616 44.0749C158.994 45.8296 156.717 46.5141 154.843 46.1049C153.232 45.6705 151.874 44.5877 151.093 43.115C148.841 39.4406 150.101 37.804 153.252 34.46C153.891 33.7749 154.84 32.894 155.928 31.8836L156 31.8163L156.029 31.7895C157.605 30.3248 159.382 28.6738 161.049 26.8829C162.777 25.1359 164.234 23.1417 165.374 20.966Z" fill="#231F20"/>
<path d="M170.304 37.5602C167.398 39.8341 163.885 42.8476 161.837 44.374C157.158 47.8675 154.197 48.2373 151.141 43.9177C147.99 39.48 149.77 37.6231 152.968 34.1926C154.543 32.5009 157.883 29.7077 160.758 26.6155C160.758 26.6155 160.939 29.8336 164.145 33.7598C165.719 35.6746 167.886 37.0117 170.304 37.5602Z" fill="#231F20"/>
<path fill-rule="evenodd" clip-rule="evenodd" d="M155.181 47.4112C155.421 47.4497 155.663 47.4681 155.906 47.4663C157.591 47.4663 159.561 46.5851 162.073 44.6888C163.107 43.9194 164.504 42.7746 166.002 41.5468C166.112 41.4563 166.223 41.3653 166.334 41.274C166.504 41.136 166.673 40.9973 166.844 40.8585C168.098 39.834 169.369 38.7965 170.548 37.8749C170.667 37.7746 170.721 37.6178 170.69 37.4658C170.648 37.3172 170.527 37.2046 170.375 37.1747C168.051 36.6349 165.97 35.3465 164.452 33.5081C161.38 29.7392 161.152 26.5919 161.152 26.5919C161.142 26.435 161.04 26.2989 160.892 26.2457C160.745 26.1898 160.579 26.2305 160.474 26.348C158.812 28.0948 157.04 29.7785 155.465 31.242C155.372 31.3272 155.281 31.4113 155.191 31.4943C154.173 32.4325 153.295 33.2416 152.637 33.9644L152.626 33.976C149.435 37.3996 147.505 39.4696 150.818 44.1459C152.22 46.1287 153.606 47.1673 155.181 47.4112ZM156 31.8164C157.41 30.5103 158.986 29.0468 160.49 27.4732C161.075 29.8831 162.222 32.1208 163.838 34.0038C165.294 35.7724 167.239 37.0747 169.43 37.7491C168.264 38.6775 167.035 39.6846 165.838 40.6682C165.538 40.9143 165.24 41.159 164.947 41.3995C163.669 42.4504 162.492 43.419 161.601 44.0594C158.867 46.0972 156.93 46.8841 155.299 46.6323C153.952 46.4198 152.732 45.4835 151.463 43.6896C148.533 39.5384 150.092 37.8603 153.226 34.4873L153.251 34.4601C153.891 33.775 154.84 32.8941 155.928 31.8838L156 31.8164Z" fill="#231F20"/>
<path d="M195.58 32.5009C192.642 35.1367 186.128 32.9415 179.787 27.5832C178.163 26.2126 176.636 24.7297 175.219 23.1455C173.826 21.5908 172.542 19.9425 171.375 18.2122C166.649 11.2724 165.176 4.55295 168.138 1.90136C171.793 -1.37969 180.914 2.8062 188.499 11.2567C196.084 19.7071 199.25 29.2119 195.58 32.5009Z" fill="#7C5DFA"/>
<path fill-rule="evenodd" clip-rule="evenodd" d="M167.587 1.32698C168.658 0.417059 170.034 -0.0550747 171.438 0.00512267C176.29 0.00512267 183.19 4.21462 189.066 10.698C192.53 14.4124 195.226 18.7735 196.998 23.5311C198.471 27.8586 198.132 31.2419 196.108 33.0516C195.033 33.9805 193.644 34.4645 192.225 34.405C188.704 34.405 183.978 32.1232 179.252 28.1891C175.984 25.4032 173.107 22.1903 170.698 18.6371C165.633 11.1623 164.381 4.19888 167.587 1.32698ZM188.475 11.2645C182.647 4.77326 175.904 0.791944 171.438 0.791944C170.239 0.739578 169.062 1.13504 168.138 1.90136C165.177 4.55295 166.65 11.2724 171.375 18.2122C172.537 19.9447 173.816 21.5956 175.203 23.1534C176.62 24.7376 178.147 26.2205 179.772 27.5911C184.317 31.415 188.909 33.626 192.24 33.626C193.449 33.6829 194.636 33.2842 195.564 32.5087C199.251 29.2198 196.068 19.715 188.475 11.2645Z" fill="#231F20"/>
<path d="M185.026 21.0368L179.788 27.5832C178.163 26.2126 176.636 24.7297 175.219 23.1455C173.827 21.5907 172.542 19.9424 171.375 18.2121L178.953 13.562L185.026 21.0368Z" fill="white"/>
<ellipse cx="181.975" cy="17.3269" rx="2.24386" ry="4.81741" transform="rotate(-39.4 181.975 17.3269)" fill="#231F20"/>
<path fill-rule="evenodd" clip-rule="evenodd" d="M179.921 18.9833C181.316 20.6828 182.985 21.6821 184.222 21.6821C184.594 21.6879 184.958 21.5688 185.254 21.3438C186.396 20.3996 185.837 17.8975 183.978 15.6393C183.228 14.6671 182.281 13.8652 181.197 13.2867C180.142 12.8146 179.244 12.8068 178.653 13.2867C178.063 13.7667 177.897 14.6558 178.189 15.7888C178.537 16.9626 179.127 18.0507 179.921 18.9833ZM179.15 13.8926C179.315 13.7695 179.518 13.7082 179.724 13.7195C180.11 13.7436 180.485 13.8481 180.827 14.0263C181.819 14.5427 182.691 15.261 183.387 16.135C185.041 18.1493 185.443 20.1714 184.765 20.73C184.088 21.2887 182.182 20.5019 180.528 18.4876C179.804 17.6443 179.267 16.6575 178.953 15.5921C178.748 14.7895 178.819 14.168 179.15 13.8926Z" fill="#231F20"/>
<path d="M178.582 48.6386C178.513 48.6391 178.445 48.62 178.386 48.5835C178.294 48.5325 178.228 48.4468 178.201 48.346C178.175 48.2451 178.19 48.1378 178.244 48.0485C178.733 47.2479 179.338 46.5241 180.04 45.9004C180.144 45.7906 180.302 45.75 180.446 45.7961C180.59 45.8421 180.695 45.9667 180.716 46.1165C180.737 46.2662 180.67 46.4147 180.544 46.4984C179.932 47.0739 179.402 47.7304 178.968 48.4497C178.887 48.5819 178.737 48.6555 178.582 48.6386Z" fill="#231F20"/>
<path d="M176.164 47.8045H176.101C175.999 47.7836 175.909 47.723 175.851 47.6359C175.794 47.5489 175.773 47.4425 175.794 47.3402C176.079 46.2173 176.744 45.2275 177.677 44.5392C177.851 44.4088 178.097 44.444 178.228 44.6178C178.358 44.7917 178.323 45.0382 178.149 45.1686C177.378 45.7432 176.823 46.561 176.574 47.4897C176.532 47.6801 176.359 47.8128 176.164 47.8045Z" fill="#231F20"/>
<path d="M181.741 48.3632C181.662 48.3637 181.584 48.3389 181.52 48.2924C181.434 48.2321 181.376 48.1401 181.358 48.0366C181.34 47.9332 181.365 47.827 181.426 47.7416L181.961 46.9548C182.092 46.7833 182.333 46.742 182.513 46.8603C182.688 46.9883 182.73 47.2322 182.607 47.4111L182.064 48.1979C181.991 48.3044 181.87 48.3667 181.741 48.3632Z" fill="#231F20"/>
<path d="M156.883 46.6716C156.797 46.6722 156.714 46.6445 156.646 46.5929C153.165 43.9492 151.007 40.739 150.581 37.5602V37.4737C150.53 37.3022 150.601 37.118 150.755 37.0252C150.843 36.9675 150.951 36.9484 151.053 36.9721C151.156 36.9959 151.244 37.0606 151.298 37.1511C151.345 37.247 151.372 37.3514 151.377 37.4579C151.779 40.4321 153.819 43.4535 157.142 45.9635C157.279 46.0659 157.334 46.2449 157.279 46.4064C157.223 46.5679 157.069 46.6751 156.898 46.6716H156.883Z" fill="white"/>
<path d="M154.937 34.1138C154.828 34.1124 154.724 34.0636 154.653 33.9801C154.579 33.9076 154.538 33.8083 154.538 33.7047C154.538 33.6011 154.579 33.5018 154.653 33.4293L158.891 29.4952C158.962 29.4191 159.062 29.376 159.167 29.376C159.271 29.376 159.371 29.4191 159.442 29.4952C159.516 29.5677 159.558 29.667 159.558 29.7706C159.558 29.8742 159.516 29.9735 159.442 30.046L155.205 33.9801C155.138 34.0596 155.041 34.108 154.937 34.1138Z" fill="white"/>
<path d="M155.52 35.058C155.41 35.0552 155.306 35.0101 155.229 34.9321C155.077 34.7765 155.077 34.5291 155.229 34.3735L159.466 30.4394C159.619 30.2894 159.864 30.2894 160.017 30.4394C160.092 30.5132 160.134 30.6138 160.134 30.7187C160.134 30.8236 160.092 30.9241 160.017 30.998L155.788 34.9321C155.717 35.0053 155.622 35.0501 155.52 35.058Z" fill="white"/>
<path d="M156.189 36.1438C156.081 36.1464 155.977 36.1002 155.906 36.0179C155.832 35.9454 155.79 35.8461 155.79 35.7425C155.79 35.6389 155.832 35.5397 155.906 35.4671L160.143 31.533C160.215 31.457 160.315 31.4138 160.419 31.4138C160.524 31.4138 160.623 31.457 160.695 31.533C160.769 31.6056 160.811 31.7048 160.811 31.8084C160.811 31.912 160.769 32.0113 160.695 32.0838L156.457 36.0179C156.389 36.0953 156.292 36.1409 156.189 36.1438Z" fill="white"/>
<path d="M86.0881 96.8313L84.1111 140.437C84.1111 140.437 111.088 140.76 126.605 134.284C127.877 130.128 129.413 126.057 131.205 122.096C133.481 117.501 143.256 110.727 140.184 93.1333C140.184 93.1333 163.215 107.689 169.706 101.001C176.196 94.3135 179.441 63.0767 179.441 63.0767L165.956 58.7492L159.828 78.0105C159.828 78.0105 120.965 59.2291 111.907 56.8529C108.544 55.9717 98.092 61.5266 86.1117 69.2139" fill="#7C5DFA"/>
<path d="M111.073 69.9299C111.073 69.9299 117.319 89.3172 118.39 97.5238C119.461 105.73 119.619 119.295 119.619 119.295C119.619 119.295 129.504 89.0497 128.283 70.3706L111.073 69.9299Z" fill="#231F20"/>
<path fill-rule="evenodd" clip-rule="evenodd" d="M119.571 119.649H119.619C119.773 119.653 119.912 119.553 119.957 119.405C120.052 119.13 129.842 88.8766 128.621 70.347C128.613 70.1663 128.464 70.0242 128.283 70.0244L111.08 69.5837C110.968 69.5839 110.863 69.637 110.796 69.7269C110.73 69.8168 110.709 69.933 110.742 70.0401C110.742 70.0413 110.743 70.0433 110.744 70.0459C110.881 70.4749 116.994 89.5404 118.043 97.5789C119.099 105.667 119.272 119.177 119.272 119.311C119.274 119.482 119.402 119.626 119.571 119.649ZM118.736 97.4766C117.768 90.0411 112.506 73.2975 111.553 70.2919L127.952 70.7246C128.866 86.3273 122.076 110.066 119.926 117.147C119.831 112.985 119.524 103.661 118.736 97.4766Z" fill="#231F20"/>
<path d="M79.6056 163.585H154.047L126.629 134.284L84.1347 140.437C84.1347 140.437 79.0464 151.94 79.5269 160.013C79.5584 160.965 79.582 162.185 79.6056 163.585Z" fill="#231F20"/>
<path fill-rule="evenodd" clip-rule="evenodd" d="M79.6057 163.979H154.047H154.055C154.212 163.98 154.355 163.888 154.418 163.744C154.481 163.6 154.453 163.433 154.346 163.318L126.928 134.017C126.839 133.922 126.71 133.875 126.582 133.891L84.0481 140.044C83.9172 140.067 83.8056 140.152 83.7488 140.272C83.5361 140.752 78.629 151.956 79.1095 160.037C79.1646 161.005 79.2119 162.271 79.2119 163.593C79.2119 163.697 79.2536 163.796 79.3277 163.869C79.4018 163.941 79.502 163.981 79.6057 163.979ZM153.133 163.192H80.0074C80.0074 162.101 79.961 161.064 79.9229 160.213C79.9195 160.137 79.9162 160.063 79.9129 159.99C79.4718 152.68 83.733 142.365 84.4026 140.791L126.479 134.701L153.133 163.192Z" fill="#231F20"/>
<path d="M126.14 59.5045L128.275 70.3706C128.275 70.3706 128.33 76.6651 121.351 76.0593C117.176 75.6677 113.399 73.4158 111.073 69.9299L108.245 50.9518C108.488 47.4962 108.207 44.0237 107.41 40.6523C115.436 38.9921 120.619 31.7297 120.619 31.7297C120.619 31.7297 124.171 35.3491 125.621 36.4507C126.787 37.2487 127.845 38.1927 128.771 39.2596C130.291 41.1401 130.74 43.7681 131.134 46.0892C131.63 48.8442 131.875 51.6383 131.867 54.4374C131.741 59.7485 126.14 59.5045 126.14 59.5045Z" fill="white"/>
<path fill-rule="evenodd" clip-rule="evenodd" d="M121.32 76.4606H122.257C123.855 76.5416 125.423 76.0128 126.645 74.9814C127.867 73.7499 128.557 72.0889 128.566 70.3549L126.511 59.9138C128.007 59.8647 129.443 59.3099 130.583 58.3401C131.628 57.3276 132.2 55.923 132.158 54.469C132.167 51.6487 131.919 48.8334 131.418 46.0579C131.04 43.7839 130.559 41.0458 128.984 39.063C128.059 37.9796 127 37.0173 125.833 36.199C124.772 35.4036 122.535 33.1787 121.462 32.1112C121.102 31.7531 120.873 31.5253 120.863 31.5253C120.791 31.4458 120.686 31.405 120.58 31.4151C120.473 31.4239 120.375 31.4784 120.312 31.5646C120.265 31.6354 115.121 38.7719 107.331 40.3455C107.237 40.3656 107.155 40.4222 107.103 40.5029C107.048 40.5808 107.031 40.6786 107.056 40.7704C107.792 43.823 108.073 46.9675 107.89 50.1021C107.859 50.4187 107.859 50.7376 107.89 51.0542C107.898 51.1486 110.718 70.0323 110.718 70.0323C110.727 70.0791 110.743 70.1242 110.765 70.1661C113.143 73.7579 117.027 76.0743 121.32 76.4606ZM121.383 75.7053C117.351 75.308 113.703 73.1471 111.419 69.8041C108.623 51.0856 108.654 50.8889 108.654 50.8889C108.633 50.6271 108.633 50.364 108.654 50.1021C108.836 47.0247 108.571 43.9371 107.867 40.9356C114.838 39.362 119.556 33.7362 120.682 32.2806C121.541 33.1776 124.179 35.8056 125.408 36.7261C126.535 37.5107 127.559 38.4332 128.456 39.4722C129.908 41.2427 130.329 43.7165 130.705 45.9242C130.717 45.9926 130.729 46.0608 130.74 46.1287C131.235 48.8626 131.48 51.6357 131.473 54.4139C131.516 55.6645 131.04 56.8773 130.157 57.7658C129.029 58.683 127.611 59.1709 126.156 59.1427C126.044 59.1338 125.935 59.1809 125.865 59.2686C125.797 59.3553 125.768 59.4667 125.786 59.5754L127.913 70.3706C127.875 71.8823 127.268 73.324 126.211 74.407C125.085 75.4456 123.462 75.8784 121.383 75.7053Z" fill="#231F20"/>
<path d="M127.093 64.8549C127.093 64.8549 122.714 65.8856 119.311 63.4858C115.909 61.086 115.767 58.041 115.767 58.041C115.767 58.041 121.154 60.3307 126.14 59.5045L127.093 64.8549Z" fill="#231F20"/>
<path fill-rule="evenodd" clip-rule="evenodd" d="M119.114 63.7691C120.794 64.8931 122.78 65.4728 124.801 65.4293C125.608 65.4406 126.414 65.3614 127.204 65.1933C127.387 65.1538 127.505 64.9761 127.471 64.792L126.51 59.4416C126.478 59.2558 126.303 59.1299 126.117 59.1583C121.691 59.8952 116.853 58.065 116.048 57.7606C115.976 57.7335 115.937 57.7184 115.932 57.7184C115.823 57.6711 115.697 57.6861 115.601 57.7578C115.5 57.8218 115.442 57.9371 115.452 58.0568C115.452 58.2299 115.609 61.2985 119.114 63.7691ZM119.54 63.2026C117.906 62.1234 116.73 60.478 116.239 58.584C117.704 59.1347 121.832 60.4566 125.888 59.8979L126.723 64.5795C125.676 64.7762 122.257 65.1224 119.54 63.2026Z" fill="#231F20"/>
<path d="M120.327 40.9749C120.327 40.9749 124.825 45.5384 124.163 46.6006C123.502 47.6628 121.06 47.5133 121.06 47.5133" fill="white"/>
<path d="M121.438 47.8674H121.036C120.944 47.8614 120.859 47.819 120.798 47.7496C120.737 47.6802 120.707 47.5895 120.714 47.4976C120.726 47.3051 120.891 47.1582 121.084 47.1672C121.706 47.1672 123.447 47.1672 123.872 46.4276C124.14 45.9869 122.375 43.5557 120.083 41.2267C119.949 41.0898 119.95 40.8696 120.087 40.7349C120.224 40.6002 120.445 40.602 120.58 40.7388C121.99 42.1709 125.187 45.625 124.463 46.7974C123.864 47.7494 122.218 47.8674 121.438 47.8674Z" fill="#231F20"/>
<ellipse cx="126.29" cy="42.3375" rx="0.614338" ry="1.14882" transform="rotate(-13.01 126.29 42.3375)" fill="#231F20"/>
<ellipse cx="116.255" cy="43.356" rx="0.614338" ry="1.14882" transform="rotate(-13.01 116.255 43.356)" fill="#231F20"/>
<path d="M110.82 44.6888C109.726 42.9185 107.166 42.6745 105.378 43.3905C104.164 43.8242 103.338 44.9523 103.29 46.2388C103.277 47.0112 103.416 47.7786 103.7 48.497C104.176 49.8439 104.891 51.094 105.811 52.1872C106.24 52.7591 106.806 53.2137 107.457 53.5091C108.296 53.8051 109.232 53.5622 109.82 52.8954" fill="white"/>
<path d="M108.198 54.0125C107.901 54.0122 107.607 53.9562 107.331 53.8472C106.625 53.527 106.008 53.0379 105.535 52.4231C104.59 51.2957 103.854 50.0087 103.361 48.6227C103.061 47.8562 102.914 47.0382 102.928 46.2151C102.99 44.7941 103.905 43.5512 105.244 43.0678C107.213 42.281 109.97 42.5957 111.128 44.5077C111.21 44.6751 111.152 44.8777 110.992 44.9755C110.833 45.0733 110.626 45.0343 110.513 44.8853C109.529 43.3117 107.205 43.0521 105.512 43.7287C104.431 44.1115 103.69 45.1101 103.637 46.2544C103.626 46.9809 103.758 47.7024 104.023 48.3788C104.486 49.6851 105.179 50.8977 106.071 51.9589C106.464 52.4813 106.981 52.8978 107.575 53.1706C108.287 53.4206 109.08 53.2117 109.576 52.6434C109.661 52.5312 109.803 52.4783 109.941 52.5077C110.078 52.5371 110.187 52.6435 110.218 52.7805C110.25 52.9176 110.199 53.0605 110.088 53.147C109.599 53.6759 108.918 53.9875 108.198 54.0125Z" fill="#231F20"/>
<path d="M124.738 48.9297L119.469 49.4411C119.469 49.4411 120.564 57.5769 122.935 57.3565C125.306 57.1362 125.313 51.2587 124.738 48.9297Z" fill="white"/>
<path fill-rule="evenodd" clip-rule="evenodd" d="M119.122 49.4883C119.304 50.881 120.351 57.7106 122.832 57.7106L122.966 57.7028C123.543 57.6356 124.058 57.3117 124.368 56.8215C125.676 54.9882 125.526 50.6528 125.077 48.8431C125.035 48.677 124.878 48.5666 124.707 48.5835L119.43 49.0949C119.335 49.1016 119.248 49.1507 119.193 49.2287C119.131 49.2997 119.105 49.3955 119.122 49.4883ZM122.832 57.0104C121.438 57.0104 120.304 52.73 119.863 49.7559L124.471 49.3388C124.88 51.3216 124.833 54.9646 123.801 56.4202C123.605 56.741 123.276 56.9574 122.903 57.0104H122.832Z" fill="#231F20"/>
<path d="M137.924 112.017C137.795 112.017 137.676 111.947 137.614 111.834C137.552 111.721 137.556 111.583 137.624 111.474C137.68 111.372 143.469 101.647 137.932 81.3938C137.886 81.2035 137.996 81.0103 138.184 80.9532C138.276 80.9268 138.374 80.9387 138.457 80.9861C138.54 81.0335 138.601 81.1125 138.625 81.205C144.257 101.788 138.483 111.45 138.231 111.891C138.157 111.982 138.041 112.03 137.924 112.017Z" fill="#231F20"/>
<path d="M30.8025 83.8726L115.838 145.158L200.873 83.8726V184.413H30.8025V83.8726Z" fill="white"/>
<path fill-rule="evenodd" clip-rule="evenodd" d="M30.4088 184.413C30.4088 184.63 30.5851 184.806 30.8026 184.806H200.873C201.089 184.802 201.263 184.628 201.267 184.413V83.8725C201.266 83.7243 201.181 83.5898 201.047 83.5263C200.921 83.4479 200.762 83.4479 200.637 83.5263L115.838 144.639L31.0311 83.5263C30.9058 83.4479 30.7467 83.4479 30.6215 83.5263C30.4892 83.5905 30.4062 83.7256 30.4088 83.8725V184.413ZM200.519 184.019H31.1728V84.6436L115.602 145.473C115.74 145.574 115.928 145.574 116.066 145.473L200.519 84.6436V184.019Z" fill="#231F20"/>
<path d="M30.8025 184.806C30.6582 184.806 30.5252 184.728 30.4559 184.601C30.3542 184.412 30.4202 184.176 30.6056 184.066L108.41 139.603C108.599 139.497 108.839 139.564 108.946 139.753C109 139.842 109.015 139.949 108.988 140.05C108.962 140.151 108.895 140.237 108.804 140.288L30.9915 184.751C30.9341 184.785 30.8691 184.804 30.8025 184.806Z" fill="#231F20"/>
<path d="M200.873 184.806C200.804 184.804 200.736 184.785 200.676 184.751L122.872 140.288C122.683 140.181 122.616 139.942 122.722 139.753C122.831 139.567 123.068 139.501 123.257 139.603L201.062 184.066C201.251 184.173 201.318 184.412 201.212 184.601C201.145 184.727 201.015 184.805 200.873 184.806Z" fill="#231F20"/>
<path d="M71.3431 138.297C71.3431 138.297 74.7851 147.251 75.5964 147.739C76.4077 148.227 85.9935 152.145 85.3082 153.978C84.6229 155.812 80.3066 153.577 80.3066 153.577C80.3066 153.577 86.5212 160.761 84.8829 162.027C83.2445 163.294 77.7309 165.867 75.5176 164.821C73.3043 163.774 62.2693 150.115 59.9299 144.182" fill="white"/>
<path d="M76.8568 165.482C76.3432 165.497 75.8325 165.4 75.3602 165.198C72.9973 164.073 61.8913 150.249 59.5677 144.348C59.5171 144.215 59.5408 144.066 59.63 143.956C59.7193 143.847 59.8604 143.793 60.0002 143.815C60.1401 143.837 60.2575 143.932 60.3081 144.064C62.6711 150.115 73.777 163.577 75.691 164.522C77.605 165.466 82.9847 163.074 84.6546 161.776C84.7271 161.708 84.7697 161.615 84.7727 161.516C84.9224 159.942 81.3858 155.481 80.0468 153.892C79.9231 153.749 79.9186 153.538 80.0361 153.39C80.1535 153.242 80.3597 153.198 80.5272 153.286C81.3149 153.695 83.5676 154.671 84.5758 154.285C84.7628 154.222 84.9108 154.077 84.9775 153.892C85.1665 153.38 83.922 152.098 76.904 148.848C76.0534 148.455 75.6044 148.242 75.4232 148.124C74.5726 147.581 71.8315 140.594 71.0124 138.47C70.974 138.372 70.9766 138.263 71.0196 138.167C71.0625 138.07 71.1422 137.996 71.2408 137.959C71.443 137.884 71.6677 137.986 71.7449 138.187C73.3832 142.443 75.3681 147.078 75.8564 147.471C75.9903 147.558 76.5653 147.825 77.2348 148.132C82.8902 150.744 86.2771 152.672 85.7179 154.167C85.5712 154.565 85.2574 154.878 84.8594 155.025C83.7973 155.241 82.6938 155.115 81.7087 154.663C83.2289 156.559 85.7415 159.966 85.584 161.587C85.5582 161.895 85.4074 162.179 85.1665 162.374C83.8669 163.357 79.6766 165.482 76.8568 165.482Z" fill="#231F20"/>
<path d="M86.1118 69.2454C65.8533 82.2437 41.2154 101.371 39.136 105.84C35.8121 112.922 60.6705 148.533 60.6705 148.533L74.1315 140.004L61.8284 113.307L86.0882 96.8235" fill="#7C5DFA"/>
<path d="M70.5555 107.8C70.437 107.803 70.3247 107.747 70.2562 107.65C70.1457 107.486 70.1839 107.264 70.3429 107.147L97.58 88.0978C97.6577 88.0405 97.7554 88.0173 97.8505 88.0337C97.9457 88.05 98.03 88.1044 98.0841 88.1843C98.1385 88.2636 98.1591 88.3612 98.1414 88.4557C98.1237 88.5501 98.069 88.6337 97.9896 88.6879L70.7603 107.737C70.7009 107.78 70.6289 107.802 70.5555 107.8Z" fill="#231F20"/>
<path d="M188.901 161.784L221.911 141.602L193.942 153.239L188.901 161.784Z" fill="#231F20"/>
<path fill-rule="evenodd" clip-rule="evenodd" d="M188.625 162.059C188.697 162.134 188.797 162.176 188.901 162.177C188.975 162.165 189.045 162.135 189.106 162.09L222.14 141.94C222.317 141.834 222.381 141.609 222.288 141.425C222.195 141.241 221.976 141.16 221.785 141.24L193.784 152.877C193.707 152.91 193.643 152.968 193.603 153.042L188.562 161.579C188.47 161.734 188.496 161.932 188.625 162.059ZM190.043 160.603L194.21 153.522L217.367 143.899L190.043 160.603Z" fill="#231F20"/>
<path d="M193.942 153.239L204.733 158.754L221.911 141.602L193.942 153.239Z" fill="white"/>
<path fill-rule="evenodd" clip-rule="evenodd" d="M204.567 159.069C204.618 159.097 204.675 159.11 204.733 159.108C204.83 159.114 204.925 159.077 204.992 159.006L222.171 141.853C222.296 141.736 222.316 141.546 222.218 141.405C222.123 141.264 221.943 141.209 221.785 141.271L193.8 152.908C193.672 152.967 193.587 153.091 193.579 153.231C193.572 153.371 193.65 153.501 193.776 153.561L204.567 159.069ZM204.662 158.314L194.792 153.278L220.367 142.632L204.662 158.314Z" fill="#231F20"/>
<path d="M221.911 141.602L186.372 150.084L178.291 145.465L221.911 141.602Z" fill="white"/>
<path fill-rule="evenodd" clip-rule="evenodd" d="M186.168 150.39C186.22 150.421 186.28 150.438 186.341 150.438L186.428 150.43L221.967 141.956C222.148 141.909 222.265 141.732 222.234 141.547C222.202 141.362 222.035 141.233 221.848 141.248L178.228 145.111C178.074 145.128 177.947 145.24 177.914 145.392C177.88 145.543 177.946 145.699 178.078 145.78L186.168 150.39ZM186.396 149.69L179.433 145.717L217.059 142.42L186.396 149.69Z" fill="#231F20"/>
<path d="M186.372 150.084L188.901 161.784L193.942 153.239L221.911 141.602L186.372 150.084Z" fill="white"/>
<path fill-rule="evenodd" clip-rule="evenodd" d="M188.846 162.145H188.901C189.039 162.157 189.172 162.086 189.24 161.964L194.217 153.53L222.053 141.94C222.24 141.879 222.343 141.678 222.282 141.491C222.221 141.305 222.02 141.202 221.833 141.263L186.294 149.737C186.202 149.758 186.122 149.814 186.071 149.894C186.021 149.974 186.005 150.07 186.026 150.162L188.546 161.87C188.58 162.014 188.699 162.124 188.846 162.145ZM189.058 160.8L186.798 150.343L217.634 142.986L193.8 152.9C193.729 152.932 193.669 152.984 193.627 153.05L189.058 160.8Z" fill="#231F20"/>
<path d="M181.615 163.412C181.442 163.409 181.292 163.292 181.245 163.126C181.198 162.96 181.265 162.782 181.41 162.688L182.725 161.847C182.908 161.727 183.153 161.778 183.273 161.961C183.392 162.143 183.341 162.388 183.159 162.507L181.828 163.357C181.763 163.394 181.689 163.413 181.615 163.412Z" fill="#D1D3D4"/>
<path fill-rule="evenodd" clip-rule="evenodd" d="M22.4236 139.771C22.4864 139.917 22.6328 140.01 22.792 140.004C22.9131 140.007 23.0288 139.955 23.1071 139.863C23.816 139.107 24.5485 138.376 25.3362 137.683C25.4107 137.609 25.4527 137.509 25.4527 137.404C25.4527 137.299 25.4107 137.198 25.3362 137.125C25.2636 137.05 25.1642 137.009 25.0605 137.009C24.9568 137.009 24.8574 137.05 24.7848 137.125C23.9972 137.833 23.2331 138.557 22.5085 139.343C22.3945 139.455 22.3608 139.625 22.4236 139.771ZM18.8538 144.883C18.7497 144.886 18.6483 144.849 18.5702 144.78C18.4847 144.722 18.4265 144.631 18.4087 144.529C18.3909 144.427 18.4151 144.322 18.4757 144.237C19.0743 143.372 19.7202 142.514 20.3818 141.696C20.5194 141.53 20.7654 141.505 20.9332 141.641C21.1021 141.776 21.1302 142.022 20.9962 142.192C20.3424 142.978 19.7123 143.836 19.1216 144.686C19.0599 144.793 18.9524 144.865 18.8301 144.883H18.8538ZM15.4196 150.288C15.4929 150.315 15.573 150.318 15.648 150.296L15.6244 150.288C15.7536 150.286 15.8738 150.221 15.9473 150.115C16.4042 149.186 16.9004 148.266 17.436 147.377C17.5443 147.187 17.4813 146.946 17.2942 146.834C17.2048 146.78 17.0973 146.765 16.9964 146.792C16.8955 146.818 16.8097 146.885 16.7586 146.976C16.2151 147.888 15.7031 148.825 15.2384 149.761C15.1923 149.855 15.1854 149.963 15.2194 150.062C15.2534 150.161 15.3254 150.242 15.4196 150.288ZM13.285 156.118C13.246 156.126 13.2059 156.126 13.1669 156.118C13.0663 156.088 12.9821 156.018 12.9333 155.925C12.8845 155.832 12.875 155.723 12.907 155.623C13.2142 154.631 13.5765 153.624 13.9782 152.633C14.0733 152.454 14.2889 152.376 14.4764 152.454C14.6639 152.531 14.7619 152.738 14.7028 152.932C14.3169 153.9 13.9624 154.883 13.6552 155.859C13.603 156.018 13.4524 156.123 13.285 156.118ZM11.8594 162.248H11.9145C12.1173 162.244 12.2843 162.088 12.3005 161.886C12.4344 160.871 12.6234 159.84 12.8518 158.825C12.8753 158.723 12.8569 158.615 12.8007 158.527C12.7445 158.438 12.6551 158.375 12.5525 158.353C12.34 158.309 12.1307 158.441 12.0799 158.652C11.8436 159.714 11.6625 160.768 11.5207 161.799C11.4925 162.016 11.6431 162.215 11.8594 162.248ZM176.18 166.63C176.003 166.629 175.85 166.509 175.804 166.339C175.758 166.169 175.831 165.989 175.983 165.899C176.999 165.316 177.913 164.789 178.701 164.325C178.79 164.27 178.898 164.253 179 164.279C179.102 164.304 179.19 164.369 179.244 164.459C179.354 164.646 179.294 164.887 179.11 165.002C178.323 165.474 177.401 166.009 176.377 166.575C176.324 166.606 176.265 166.625 176.204 166.63H176.18ZM11.245 168.149C11.2575 168.357 11.4302 168.519 11.6388 168.519H11.6625C11.767 168.513 11.8648 168.465 11.9342 168.387C12.0037 168.309 12.0391 168.206 12.0327 168.102C11.9854 167.504 11.9854 166.89 11.9854 166.284V165.002C11.9897 164.897 11.9522 164.795 11.8813 164.719C11.8104 164.642 11.7118 164.597 11.6073 164.592C11.5023 164.586 11.3992 164.623 11.3219 164.694C11.2445 164.765 11.1997 164.865 11.1978 164.97V166.284C11.1978 166.596 11.2096 166.91 11.2215 167.222C11.2333 167.533 11.245 167.843 11.245 168.149ZM170.667 169.675C170.522 169.677 170.388 169.598 170.32 169.471C170.22 169.279 170.289 169.043 170.477 168.936C171.366 168.463 172.208 168.004 173.006 167.57L173.242 167.441C173.366 167.353 173.528 167.344 173.661 167.417C173.793 167.491 173.872 167.633 173.863 167.784C173.855 167.935 173.76 168.068 173.62 168.125C172.754 168.605 171.832 169.109 170.848 169.636C170.799 169.661 170.745 169.674 170.69 169.675H170.667ZM164.72 172.358C164.784 172.495 164.923 172.581 165.074 172.579C165.135 172.578 165.195 172.562 165.247 172.531C166.224 172.044 167.161 171.564 168.059 171.099C168.253 171 168.329 170.762 168.229 170.568C168.129 170.375 167.891 170.299 167.697 170.399C166.799 170.871 165.862 171.343 164.893 171.831C164.7 171.929 164.622 172.165 164.72 172.358ZM12.6943 174.68C12.5171 174.679 12.3623 174.559 12.3162 174.388C12.0278 173.366 11.7964 172.328 11.6231 171.28C11.5883 171.063 11.7364 170.859 11.9539 170.824C12.1714 170.789 12.3759 170.937 12.4107 171.155C12.5681 172.184 12.7837 173.203 13.0566 174.207C13.0859 174.308 13.0741 174.415 13.0239 174.507C12.9736 174.598 12.8891 174.666 12.7888 174.695L12.6943 174.68ZM159.08 175.112C159.143 175.25 159.283 175.337 159.435 175.333C159.491 175.334 159.548 175.323 159.6 175.301L162.443 173.932C162.639 173.836 162.72 173.6 162.625 173.405C162.529 173.209 162.293 173.128 162.097 173.224C161.183 173.672 160.238 174.129 159.261 174.585C159.167 174.631 159.095 174.712 159.061 174.811C159.027 174.91 159.034 175.018 159.08 175.112ZM153.708 177.961C153.554 177.959 153.414 177.87 153.346 177.732C153.302 177.637 153.298 177.527 153.337 177.429C153.376 177.331 153.453 177.253 153.551 177.213C153.762 177.118 153.972 177.023 154.181 176.929L154.182 176.929C154.939 176.588 155.682 176.254 156.41 175.915C156.608 175.824 156.842 175.91 156.934 176.108C157.025 176.305 156.939 176.54 156.741 176.631C155.803 177.064 154.85 177.496 153.866 177.929C153.816 177.951 153.763 177.962 153.708 177.961ZM15.073 180.51C14.9282 180.512 14.7944 180.433 14.7265 180.305C14.2118 179.375 13.7516 178.416 13.3481 177.433C13.2946 177.303 13.315 177.153 13.4016 177.042C13.4882 176.93 13.6278 176.873 13.7678 176.892C13.9079 176.911 14.0271 177.004 14.0806 177.134C14.4677 178.093 14.9149 179.026 15.4196 179.928C15.52 180.119 15.4503 180.356 15.2621 180.463C15.2037 180.493 15.1389 180.509 15.073 180.51ZM141.706 182.672C141.798 182.781 141.942 182.833 142.082 182.807V182.815C142.133 182.815 142.184 182.807 142.232 182.792L145.162 181.596C145.363 181.509 145.457 181.278 145.375 181.076C145.291 180.877 145.063 180.782 144.863 180.864L141.941 182.021C141.8 182.046 141.684 182.144 141.635 182.279C141.587 182.413 141.614 182.563 141.706 182.672ZM18.4127 185.483C18.4895 185.567 18.5979 185.615 18.712 185.616V185.624C18.8202 185.629 18.9256 185.589 19.0034 185.514C19.1545 185.358 19.1545 185.111 19.0034 184.955C18.3115 184.188 17.6646 183.382 17.0658 182.54C16.9899 182.412 16.8483 182.338 16.6998 182.348C16.5513 182.358 16.4213 182.451 16.3637 182.588C16.3062 182.725 16.331 182.883 16.4278 182.996C17.0423 183.861 17.705 184.692 18.4127 185.483ZM130.252 187.111C130.034 187.146 129.83 186.998 129.795 186.781C129.76 186.564 129.908 186.359 130.126 186.324C131.126 185.986 132.119 185.648 133.095 185.302C133.302 185.233 133.525 185.341 133.599 185.546C133.635 185.643 133.629 185.75 133.585 185.843C133.541 185.936 133.461 186.007 133.363 186.041C132.379 186.387 131.386 186.734 130.378 187.072L130.252 187.111ZM23.3513 189.842C23.266 189.842 23.1829 189.814 23.115 189.763C22.2564 189.126 21.4294 188.449 20.6575 187.749C20.5829 187.675 20.541 187.574 20.541 187.469C20.541 187.364 20.5829 187.264 20.6575 187.19C20.7301 187.116 20.8295 187.074 20.9332 187.074C21.0369 187.074 21.1363 187.116 21.2089 187.19C21.9763 187.885 22.7781 188.542 23.6112 189.157C23.7852 189.287 23.8205 189.534 23.69 189.708C23.605 189.804 23.4791 189.854 23.3513 189.842ZM117.862 190.573C117.908 190.739 118.057 190.854 118.228 190.857H118.224C118.267 190.861 118.31 190.856 118.35 190.841C119.367 190.558 120.375 190.259 121.375 189.96C121.477 189.932 121.562 189.865 121.613 189.773C121.664 189.681 121.674 189.572 121.643 189.472C121.579 189.266 121.361 189.151 121.154 189.212L118.138 190.085C117.929 190.147 117.806 190.363 117.862 190.573ZM28.4868 193.099C28.5428 193.128 28.6048 193.144 28.668 193.146V193.162C28.8855 193.212 29.1023 193.076 29.1524 192.859C29.2024 192.642 29.0666 192.425 28.8491 192.375C27.9118 191.895 26.9981 191.384 26.1396 190.857C26.0514 190.799 25.9435 190.78 25.8409 190.803C25.7383 190.827 25.6498 190.892 25.5961 190.982C25.5406 191.071 25.5226 191.178 25.5463 191.28C25.5699 191.382 25.6332 191.47 25.7221 191.525C26.6043 192.084 27.5337 192.611 28.4868 193.099ZM106.008 193.988C105.867 194.004 105.729 193.943 105.645 193.829C105.561 193.715 105.545 193.565 105.602 193.435C105.659 193.306 105.781 193.217 105.921 193.201C106.945 192.965 107.961 192.729 108.977 192.477C109.188 192.428 109.399 192.558 109.45 192.769C109.476 192.871 109.46 192.979 109.405 193.07C109.35 193.16 109.261 193.224 109.158 193.249C108.142 193.492 107.126 193.736 106.094 193.965L106.008 193.988ZM34.473 195.609C34.4313 195.616 34.3886 195.616 34.347 195.609C33.3388 195.255 32.3384 194.869 31.3854 194.468C31.289 194.427 31.2133 194.348 31.1748 194.251C31.1364 194.153 31.1384 194.045 31.1806 193.949C31.267 193.753 31.4946 193.662 31.6926 193.744C32.6299 194.138 33.6144 194.531 34.6069 194.869C34.8244 194.906 34.9707 195.112 34.9338 195.33C34.8968 195.547 34.6905 195.693 34.473 195.656V195.609ZM93.3109 196.144C93.342 196.332 93.506 196.469 93.6968 196.467H93.7677L96.8711 195.908C97.0837 195.868 97.2244 195.664 97.1861 195.452C97.169 195.349 97.1106 195.257 97.0245 195.197C96.9384 195.138 96.8318 195.116 96.7293 195.137L93.6338 195.688C93.4204 195.728 93.2773 195.93 93.3109 196.144ZM40.53 197.371H40.4355C39.3879 197.128 38.3561 196.86 37.3715 196.585C37.1656 196.52 37.0474 196.305 37.1037 196.097C37.1646 195.888 37.3833 195.768 37.5921 195.829C38.5688 196.105 39.5849 196.372 40.6167 196.616C40.719 196.638 40.8078 196.701 40.8627 196.79C40.9177 196.879 40.934 196.987 40.9081 197.088C40.8547 197.259 40.6929 197.372 40.5143 197.364L40.53 197.371ZM87.0884 197.112C87.1192 197.306 87.2858 197.449 87.4822 197.45L87.5058 197.442L90.6565 196.978C90.7601 196.961 90.8525 196.903 90.9131 196.817C90.9738 196.731 90.9976 196.625 90.9794 196.522C90.964 196.419 90.9076 196.326 90.8231 196.266C90.7385 196.205 90.633 196.181 90.5304 196.199L87.4271 196.663C87.3222 196.677 87.2272 196.732 87.1634 196.817C87.0997 196.901 87.0727 197.007 87.0884 197.112ZM81.2361 198.237C81.0954 198.245 80.9609 198.178 80.8832 198.061C80.8055 197.943 80.7965 197.793 80.8596 197.667C80.9226 197.541 81.0481 197.459 81.1888 197.45C82.239 197.335 83.2892 197.209 84.3395 197.072C84.557 197.044 84.7562 197.197 84.7845 197.415C84.8128 197.632 84.6594 197.831 84.4418 197.859L81.2912 198.229L81.2361 198.237ZM46.6501 198.52H46.6895C46.8825 198.511 47.0413 198.365 47.0676 198.174C47.0834 198.071 47.0574 197.965 46.9953 197.881C46.9333 197.797 46.8402 197.741 46.7368 197.726C45.6892 197.576 44.6495 197.403 43.6492 197.214C43.5085 197.187 43.3642 197.238 43.2707 197.346C43.1772 197.454 43.1487 197.604 43.1959 197.739C43.2431 197.875 43.3588 197.974 43.4995 198.001C44.5471 198.19 45.5947 198.363 46.6501 198.52ZM74.9664 198.843C74.7488 198.843 74.5725 198.667 74.5725 198.449C74.5725 198.232 74.7488 198.056 74.9664 198.056C76.0139 197.969 77.0536 197.875 78.117 197.773C78.3322 197.758 78.5216 197.913 78.5502 198.127C78.5612 198.231 78.5299 198.336 78.4633 198.417C78.3967 198.498 78.3004 198.55 78.1957 198.56C77.1455 198.659 76.0953 198.754 75.0451 198.843H74.9664ZM49.8165 198.914C50.8483 199.024 51.8959 199.118 52.9671 199.197H53.0538C53.2713 199.197 53.4476 199.021 53.4476 198.803C53.4476 198.586 53.2713 198.41 53.0538 198.41C51.9589 198.331 50.9192 198.237 49.9032 198.135C49.799 198.119 49.6931 198.148 49.6108 198.213C49.5286 198.279 49.4776 198.376 49.4699 198.481C49.4469 198.696 49.6016 198.889 49.8165 198.914ZM68.6809 199.252C68.4737 199.252 68.3034 199.089 68.2949 198.882C68.2885 198.778 68.3239 198.675 68.3933 198.597C68.4628 198.519 68.5606 198.471 68.6651 198.465C69.7127 198.418 70.7603 198.355 71.8157 198.284C71.9207 198.275 72.0247 198.31 72.1036 198.38C72.1824 198.45 72.2292 198.549 72.2332 198.654C72.2419 198.758 72.2083 198.86 72.1401 198.939C72.0718 199.017 71.9748 199.065 71.8709 199.071C70.8233 199.142 69.7757 199.205 68.7202 199.252H68.6809ZM56.4539 199.392C57.3597 199.428 58.2883 199.464 59.229 199.464H59.2369C59.3448 199.469 59.4498 199.429 59.5284 199.355C59.6069 199.281 59.6523 199.179 59.6543 199.071C59.6543 198.967 59.6128 198.867 59.539 198.793C59.4651 198.719 59.3649 198.678 59.2605 198.678C58.1814 198.662 57.1338 198.63 56.1099 198.591C56.0054 198.587 55.9035 198.624 55.8267 198.695C55.7499 198.766 55.7044 198.864 55.7003 198.969C55.6957 199.184 55.8627 199.365 56.0784 199.378L56.4539 199.392ZM61.9858 199.071C61.99 199.286 62.1639 199.46 62.3796 199.464H62.3875L64.27 199.425L65.5381 199.386C65.644 199.384 65.7446 199.339 65.8172 199.262C65.8898 199.185 65.9283 199.082 65.9241 198.977C65.9076 198.763 65.7289 198.598 65.5145 198.599L64.2464 198.638L62.3717 198.678C62.1573 198.682 61.9857 198.857 61.9858 199.071ZM99.4624 194.995C99.5026 195.177 99.6623 195.307 99.8484 195.31L99.9272 195.302L103.015 194.657C103.117 194.636 103.206 194.575 103.262 194.488C103.319 194.4 103.337 194.294 103.314 194.193C103.293 194.09 103.233 194.001 103.145 193.943C103.058 193.886 102.952 193.865 102.849 193.886L99.7696 194.531C99.6673 194.552 99.5774 194.612 99.5198 194.7C99.4621 194.787 99.4415 194.893 99.4624 194.995ZM111.718 192.155C111.744 192.368 111.935 192.522 112.148 192.502C112.185 192.512 112.225 192.512 112.262 192.501C113.286 192.249 114.302 191.987 115.31 191.714C115.451 191.678 115.561 191.569 115.6 191.429C115.639 191.289 115.6 191.139 115.498 191.035C115.396 190.932 115.246 190.891 115.105 190.927L112.065 191.714C111.847 191.74 111.692 191.938 111.718 192.155ZM123.888 188.779C123.934 188.944 124.086 189.058 124.258 189.055V189.063C124.298 189.063 124.339 189.055 124.376 189.039C125.392 188.724 126.392 188.41 127.385 188.087C127.591 188.019 127.704 187.798 127.637 187.591C127.606 187.491 127.536 187.407 127.442 187.36C127.349 187.312 127.24 187.305 127.141 187.339C126.868 187.426 126.595 187.513 126.322 187.6C125.602 187.83 124.879 188.061 124.148 188.284C124.047 188.314 123.963 188.384 123.914 188.477C123.865 188.57 123.856 188.679 123.888 188.779ZM136.191 185.034C136.026 185.03 135.881 184.927 135.821 184.774C135.747 184.57 135.853 184.345 136.057 184.271C136.735 184.025 137.403 183.776 138.066 183.529L138.07 183.527L138.071 183.527C138.385 183.41 138.698 183.293 139.011 183.177C139.205 183.128 139.405 183.233 139.476 183.42C139.546 183.607 139.465 183.818 139.286 183.909C138.31 184.279 137.325 184.641 136.325 185.003C136.285 185.028 136.238 185.041 136.191 185.042V185.034ZM147.565 180.211C147.621 180.361 147.767 180.458 147.927 180.455C147.979 180.456 148.03 180.445 148.077 180.423L150.983 179.196C151.183 179.109 151.275 178.876 151.188 178.677C151.101 178.477 150.868 178.385 150.668 178.472C149.965 178.8 149.249 179.092 148.524 179.389L148.523 179.389C148.273 179.492 148.022 179.595 147.769 179.699C147.573 179.786 147.482 180.013 147.565 180.211Z" fill="#D1D3D4"/>
<path d="M27.5023 135.763C27.3822 135.764 27.2687 135.709 27.1951 135.614C27.062 135.44 27.0936 135.191 27.266 135.055C27.6913 134.74 28.1167 134.426 28.5499 134.119C28.665 134.03 28.8198 134.011 28.9526 134.071C29.0854 134.131 29.1745 134.259 29.1841 134.404C29.1938 134.549 29.1226 134.687 28.9989 134.764C28.5735 135.063 28.1561 135.37 27.7465 135.685C27.6762 135.737 27.5902 135.765 27.5023 135.763Z" fill="#D1D3D4"/>
<path d="M204.142 88.7508C204.041 88.7539 203.944 88.7138 203.874 88.6406C203.8 88.5681 203.758 88.4689 203.758 88.3653C203.758 88.2616 203.8 88.1624 203.874 88.0899C203.874 88.0899 204.26 87.6807 204.93 86.9411C205.016 86.8149 205.167 86.7499 205.318 86.7744C205.469 86.799 205.592 86.9086 205.634 87.0557C205.676 87.2027 205.628 87.3605 205.512 87.4604C204.835 88.2472 204.441 88.6328 204.441 88.6328C204.363 88.7138 204.254 88.7569 204.142 88.7508Z" fill="#D1D3D4"/>
<path fill-rule="evenodd" clip-rule="evenodd" d="M204.969 17.2365H205.04V17.2128C205.223 17.2175 205.385 17.0925 205.426 16.9139C205.459 16.6995 205.316 16.4974 205.103 16.4575C204.045 16.2765 202.977 16.1556 201.905 16.0956C201.799 16.0819 201.692 16.1148 201.612 16.1857C201.532 16.2565 201.487 16.3585 201.488 16.4654C201.481 16.5698 201.517 16.6724 201.586 16.7507C201.655 16.8289 201.753 16.8763 201.858 16.8824C202.901 16.9394 203.94 17.0576 204.969 17.2365ZM211.105 19.0855C211.05 19.0963 210.994 19.0963 210.939 19.0855C209.991 18.654 209.015 18.2861 208.017 17.9839C207.877 17.9432 207.768 17.8305 207.733 17.6884C207.698 17.5463 207.742 17.3964 207.847 17.295C207.953 17.1937 208.105 17.1563 208.246 17.1971C209.278 17.5062 210.289 17.8848 211.27 18.3301C211.365 18.3729 211.439 18.4521 211.475 18.5499C211.51 18.6477 211.505 18.7557 211.459 18.8494C211.392 18.9828 211.254 19.0656 211.105 19.0619V19.0855ZM216.146 22.4295C216.22 22.489 216.311 22.5222 216.406 22.5239V22.5003C216.505 22.5003 216.6 22.4638 216.674 22.398C216.825 22.2424 216.825 21.995 216.674 21.8394C215.865 21.1227 215.004 20.4678 214.098 19.8802C213.98 19.7951 213.824 19.7822 213.694 19.8466C213.563 19.9109 213.478 20.0421 213.474 20.1875C213.47 20.333 213.546 20.469 213.673 20.5411C214.544 21.1071 215.37 21.7384 216.146 22.4295ZM220.454 27.3786C220.318 27.3796 220.19 27.3114 220.116 27.1976C219.572 26.3114 218.967 25.4647 218.304 24.664C218.168 24.4964 218.193 24.2507 218.359 24.1133C218.438 24.0451 218.541 24.0117 218.645 24.0205C218.749 24.0294 218.844 24.0799 218.911 24.1605C219.594 24.9819 220.221 25.8494 220.785 26.757C220.843 26.845 220.862 26.9528 220.838 27.0553C220.814 27.1579 220.75 27.2462 220.659 27.2999C220.597 27.3374 220.526 27.3565 220.454 27.355V27.3786ZM222.707 32.8627C222.762 33.0244 222.914 33.1324 223.085 33.1302V33.1066C223.126 33.1165 223.169 33.1191 223.211 33.1145C223.414 33.0438 223.523 32.8229 223.455 32.6188C223.125 31.5989 222.739 30.598 222.297 29.621C222.238 29.4931 222.115 29.4064 221.975 29.3936C221.835 29.3808 221.698 29.4438 221.617 29.5588C221.535 29.6739 221.522 29.8236 221.581 29.9515C222.009 30.9005 222.385 31.8724 222.707 32.8627ZM224.511 39.2989C224.314 39.2975 224.148 39.1544 224.117 38.9606C223.967 37.9063 223.77 36.8677 223.542 35.8763C223.494 35.659 223.632 35.4441 223.849 35.3963C224.067 35.3485 224.282 35.4859 224.33 35.7032C224.558 36.7103 224.755 37.7725 224.912 38.8504C224.941 39.0645 224.795 39.2627 224.582 39.2989H224.511ZM224.629 45.208C224.633 45.4222 224.808 45.5935 225.023 45.5935H225.031C225.246 45.585 225.417 45.4078 225.417 45.1922C225.393 44.1064 225.338 43.0363 225.259 42.0056C225.251 41.9011 225.202 41.8042 225.122 41.7362C225.042 41.6683 224.938 41.635 224.834 41.6437C224.73 41.6497 224.633 41.6973 224.564 41.7758C224.496 41.8544 224.463 41.9571 224.471 42.0607C224.55 43.0835 224.629 44.1379 224.629 45.208ZM224.842 51.9353H224.802C224.587 51.9145 224.429 51.7251 224.448 51.5104C224.448 51.3219 224.468 51.136 224.489 50.9497C224.504 50.8094 224.52 50.6689 224.526 50.5269C224.526 50.0814 224.553 49.6389 224.579 49.2028L224.579 49.2027C224.595 48.9225 224.612 48.6449 224.621 48.371C224.621 48.2659 224.664 48.1654 224.74 48.0926C224.815 48.0199 224.918 47.9812 225.023 47.9854C225.238 47.9939 225.409 48.1711 225.409 48.3867C225.409 48.9319 225.377 49.4817 225.344 50.043L225.344 50.0431C225.334 50.2189 225.324 50.3958 225.314 50.5741C225.314 50.8257 225.288 51.0729 225.262 51.3222C225.253 51.4082 225.243 51.4945 225.235 51.5812C225.212 51.7813 225.043 51.9327 224.842 51.9353ZM223.4 58.1354H223.518H223.55C223.703 58.1369 223.843 58.0515 223.912 57.9151C224.211 56.8214 224.479 55.775 224.7 54.7678C224.739 54.5558 224.603 54.3508 224.393 54.3036C224.182 54.2597 223.975 54.3929 223.928 54.6026C223.723 55.5861 223.455 56.609 223.14 57.6397C223.078 57.848 223.193 58.0678 223.4 58.1354ZM221.226 64.0523C221.172 64.0636 221.115 64.0636 221.061 64.0523C220.966 64.0096 220.892 63.9303 220.857 63.8326C220.821 63.7348 220.826 63.6267 220.872 63.533C221.321 62.5495 221.738 61.5739 222.101 60.6297C222.138 60.5311 222.213 60.4515 222.309 60.4087C222.405 60.3658 222.514 60.3632 222.612 60.4015C222.815 60.4819 222.916 60.7088 222.841 60.9129C222.463 61.8728 222.053 62.8642 221.589 63.8556C221.518 63.9721 221.394 64.0459 221.258 64.0523H221.226ZM218.107 69.6388C218.166 69.6761 218.234 69.6952 218.304 69.6939H218.336C218.464 69.6825 218.579 69.609 218.643 69.4971C219.186 68.553 219.706 67.6166 220.179 66.6961C220.279 66.5027 220.203 66.2649 220.009 66.165C219.816 66.065 219.578 66.1408 219.478 66.3341C219.013 67.239 218.501 68.1753 217.965 69.1037C217.911 69.1931 217.896 69.3004 217.923 69.4012C217.95 69.502 218.016 69.5877 218.107 69.6388ZM214.933 75.0757C214.785 75.0803 214.648 75.0003 214.579 74.8697C214.511 74.7392 214.522 74.5809 214.61 74.462C215.185 73.6044 215.768 72.7231 216.335 71.8104C216.453 71.6291 216.693 71.5735 216.878 71.6845C217.061 71.802 217.114 72.0448 216.997 72.2274C216.453 73.1008 215.87 73.9978 215.264 74.9026C215.196 75.0033 215.086 75.0672 214.964 75.0757H214.933ZM210.995 80.1665C211.064 80.2144 211.146 80.2417 211.231 80.2451L211.262 80.2609C211.378 80.2488 211.482 80.1852 211.546 80.0878C212.168 79.2773 212.798 78.4197 213.444 77.5227C213.57 77.3446 213.528 77.098 213.35 76.972C213.171 76.8459 212.924 76.8882 212.798 77.0664C212.16 77.9555 211.53 78.821 210.924 79.6078C210.791 79.7821 210.822 80.0308 210.995 80.1665ZM207.033 85.1077C207.106 85.1683 207.198 85.2017 207.293 85.2021C207.422 85.215 207.55 85.1618 207.631 85.0605C208.246 84.3366 208.931 83.5104 209.656 82.5977C209.722 82.517 209.753 82.4128 209.741 82.309C209.729 82.2052 209.676 82.1106 209.593 82.047C209.423 81.9131 209.176 81.9412 209.041 82.1099C208.701 82.5199 208.371 82.9247 208.054 83.3137L208.054 83.3139C207.696 83.7535 207.354 84.1729 207.033 84.5569C206.959 84.6294 206.917 84.7287 206.917 84.8323C206.917 84.9359 206.959 85.0352 207.033 85.1077Z" fill="#D1D3D4"/>
<path d="M197.108 17.0084C196.968 17.0196 196.832 16.955 196.751 16.8389C196.671 16.7228 196.659 16.5729 196.72 16.4455C196.781 16.3182 196.905 16.2328 197.045 16.2216C197.567 16.1401 198.093 16.0875 198.621 16.0642C198.838 16.0512 199.025 16.2167 199.038 16.434C199.051 16.6513 198.885 16.838 198.668 16.851C197.715 16.9061 197.148 16.9926 197.148 16.9926L197.108 17.0084Z" fill="#D1D3D4"/>
<path d="M1.63426 52.0084C0.731956 50.9056 0.895362 49.28 1.9991 48.3788L24.8514 29.7208C25.9535 28.821 27.5763 28.9841 28.4772 30.0853L37.7085 41.3678C38.6108 42.4706 38.4474 44.0962 37.3437 44.9974L14.4913 63.6554C13.3892 64.5552 11.7665 64.3921 10.8655 63.2909L1.63426 52.0084Z" fill="white"/>
<path fill-rule="evenodd" clip-rule="evenodd" d="M12.5446 64.8629H12.7888C13.3409 64.864 13.876 64.6719 14.3011 64.32L38.0489 44.9327C38.5462 44.5364 38.8626 43.9564 38.9263 43.3241C38.99 42.6918 38.7958 42.0605 38.3876 41.573L28.4159 29.3852C28.0191 28.8884 27.4386 28.5724 26.8056 28.5087C26.1725 28.445 25.5406 28.639 25.0526 29.0468L1.30479 48.442C0.807478 48.8383 0.491172 49.4183 0.427426 50.0506C0.363681 50.6829 0.557883 51.3142 0.966102 51.8017L10.9693 63.9974C11.3598 64.482 11.9259 64.7931 12.5446 64.8629ZM25.5488 29.6527C25.8383 29.4243 26.1961 29.2996 26.5649 29.2986C27.0511 29.2979 27.5104 29.5215 27.8094 29.9045L37.7811 42.0687C38.0564 42.3946 38.1874 42.8181 38.1444 43.2422C38.1013 43.6664 37.8878 44.055 37.5527 44.319L13.8206 63.7142C13.4908 63.981 13.0695 64.1081 12.647 64.0683C12.2234 64.0278 11.8341 63.8177 11.5679 63.486L1.59623 51.306C1.32942 50.9733 1.20234 50.5502 1.24178 50.1258C1.27634 49.7062 1.47777 49.3179 1.80102 49.0478L25.5488 29.6527Z" fill="#D1D3D4"/>
<path d="M0.847865 50.3618C0.630359 50.3618 0.454037 50.1857 0.454037 49.9684C0.443092 49.8648 0.474591 49.7611 0.541361 49.6811C0.608131 49.6011 0.704486 49.5514 0.808482 49.5435L20.6023 47.8282L26.2261 28.795C26.2535 28.6936 26.321 28.6078 26.4132 28.5573C26.5054 28.5068 26.6142 28.496 26.7145 28.5275C26.9201 28.5917 27.0359 28.8091 26.9744 29.0153L21.2875 48.3082C21.2452 48.4642 21.11 48.5773 20.9488 48.5914L0.887247 50.3618H0.847865Z" fill="#D1D3D4"/>
<path d="M21.7207 45.7668C21.5032 45.7668 21.3269 45.5906 21.3269 45.3733C21.3269 45.1561 21.5032 44.9799 21.7207 44.9799L38.4663 43.068C38.6801 43.0492 38.8709 43.2017 38.8995 43.4142C38.9128 43.5186 38.8836 43.6241 38.8185 43.7069C38.7534 43.7897 38.6577 43.843 38.5529 43.8548L21.7916 45.7668H21.7207Z" fill="#D1D3D4"/>
<path d="M12.7652 64.8629C12.7262 64.8703 12.6861 64.8703 12.6471 64.8629C12.5466 64.8323 12.4629 64.7622 12.4154 64.6687C12.3678 64.5751 12.3605 64.4663 12.395 64.3672L17.6014 48.3554C17.6451 48.2148 17.7604 48.1082 17.9041 48.0756C18.0477 48.0431 18.1979 48.0896 18.2979 48.1976C18.3979 48.3056 18.4327 48.4587 18.3891 48.5993L13.1827 64.6111C13.1163 64.7794 12.9453 64.8826 12.7652 64.8629Z" fill="#D1D3D4"/>
<path d="M214.567 105.874C215.023 104.825 216.241 104.344 217.29 104.798L239.065 114.229C240.114 114.684 240.597 115.904 240.141 116.953L235.473 127.708C235.018 128.756 233.8 129.238 232.751 128.783L210.976 119.353C209.926 118.898 209.444 117.678 209.9 116.628L214.567 105.874Z" fill="white"/>
<path fill-rule="evenodd" clip-rule="evenodd" d="M233.041 129.319C233.29 129.426 233.558 129.482 233.829 129.485C234.084 129.477 234.335 129.421 234.569 129.319C235.061 129.125 235.455 128.743 235.664 128.257L240.705 116.667C240.91 116.179 240.91 115.629 240.705 115.141C240.511 114.647 240.128 114.251 239.641 114.039L217.012 104.243C215.998 103.809 214.824 104.273 214.381 105.282L209.348 116.888C209.147 117.379 209.147 117.93 209.348 118.422C209.544 118.915 209.93 119.31 210.419 119.516L233.041 129.319ZM215.161 105.597C215.352 105.154 215.789 104.866 216.272 104.865C216.427 104.868 216.58 104.902 216.721 104.967L239.334 114.771C239.633 114.896 239.866 115.137 239.98 115.44C240.102 115.735 240.102 116.066 239.98 116.36L234.939 127.974C234.815 128.27 234.577 128.503 234.278 128.619C233.98 128.741 233.646 128.741 233.348 128.619L210.719 118.815C210.112 118.552 209.831 117.85 210.089 117.242L215.161 105.597Z" fill="#D1D3D4"/>
<path d="M224.408 118.611C224.274 118.614 224.148 118.545 224.078 118.43L215.413 104.755C215.298 104.57 215.354 104.327 215.539 104.212C215.724 104.097 215.968 104.153 216.083 104.338L224.574 117.785L240.209 114.787C240.311 114.764 240.419 114.783 240.507 114.841C240.594 114.899 240.655 114.99 240.673 115.094C240.712 115.308 240.572 115.514 240.358 115.558L224.463 118.611H224.408Z" fill="#D1D3D4"/>
<path d="M234.285 129.414C234.153 129.414 234.03 129.349 233.955 129.24L226.409 118.028C226.29 117.848 226.339 117.605 226.519 117.485C226.605 117.426 226.712 117.405 226.814 117.425C226.917 117.446 227.006 117.508 227.063 117.596L234.608 128.839C234.728 129.022 234.679 129.267 234.498 129.39C234.43 129.416 234.357 129.424 234.285 129.414Z" fill="#D1D3D4"/>
<path d="M209.774 118.815C209.578 118.818 209.411 118.677 209.38 118.485C209.364 118.382 209.39 118.276 209.452 118.192C209.514 118.108 209.607 118.052 209.711 118.036L223.101 115.849C223.241 115.827 223.383 115.881 223.473 115.991C223.563 116.102 223.587 116.252 223.536 116.385C223.485 116.518 223.367 116.613 223.227 116.636L209.837 118.823L209.774 118.815Z" fill="#D1D3D4"/>
<path d="M63.0313 13.6786C63.2942 12.8862 64.1495 12.4568 64.9421 12.7192L81.4124 18.1732C82.2056 18.4359 82.6355 19.2921 82.3723 20.0852L79.6718 28.2231C79.4089 29.0155 78.5536 29.4449 77.761 29.1825L61.2907 23.7285C60.4975 23.4658 60.0676 22.6095 60.3308 21.8165L63.0313 13.6786Z" fill="white"/>
<path fill-rule="evenodd" clip-rule="evenodd" d="M77.9436 29.6525C78.1012 29.7042 78.266 29.7308 78.4319 29.7311C79.1113 29.7318 79.7145 29.2973 79.9285 28.6532L82.8349 19.8723C83.1054 19.0512 82.6623 18.166 81.8425 17.8895L64.7267 12.2244C63.905 11.96 63.0233 12.4056 62.7497 13.2236L59.8354 22.0045C59.7051 22.399 59.7363 22.8289 59.922 23.2005C60.1082 23.5719 60.4338 23.8548 60.8278 23.9873L77.9436 29.6525ZM78.7864 28.905C78.5946 28.9837 78.3795 28.9837 78.1878 28.905L61.0956 23.2792C60.8985 23.2157 60.7344 23.0772 60.6388 22.8937C60.5641 22.7013 60.5641 22.488 60.6388 22.2957L63.5531 13.5147C63.6185 13.3208 63.7569 13.1599 63.9391 13.0663C64.1246 12.9722 64.3397 12.9552 64.5377 13.019L81.6535 18.6842C81.849 18.7513 82.0103 18.8926 82.1024 19.0776C82.1812 19.2691 82.1812 19.484 82.1024 19.6756L79.1802 28.4486C79.1148 28.6469 78.9731 28.8111 78.7864 28.905Z" fill="#D1D3D4"/>
<path d="M70.9887 22.4296C70.865 22.4284 70.7488 22.3704 70.6736 22.2723L63.4666 12.8776C63.3498 12.7056 63.3871 12.4725 63.5518 12.3455C63.7165 12.2184 63.9517 12.2413 64.0888 12.3977L71.1068 21.5799L82.2285 18.4326C82.3299 18.4037 82.4386 18.4165 82.5304 18.4683C82.6221 18.52 82.6893 18.6064 82.7169 18.708C82.7722 18.9164 82.6492 19.1305 82.4412 19.1879L71.0674 22.4454L70.9887 22.4296Z" fill="#D1D3D4"/>
<path d="M78.881 29.6525C78.7607 29.6543 78.6466 29.5988 78.5738 29.503L72.3514 21.8078C72.2143 21.6384 72.2408 21.39 72.4104 21.2531C72.5801 21.1162 72.8287 21.1427 72.9657 21.3121L79.1882 29.0151C79.3223 29.1848 79.2941 29.4308 79.1252 29.5659C79.0556 29.6209 78.9698 29.6513 78.881 29.6525Z" fill="#D1D3D4"/>
<path d="M60.316 23.5153C60.1753 23.5322 60.0363 23.4728 59.9513 23.3595C59.8663 23.2462 59.8483 23.0962 59.904 22.9661C59.9598 22.8359 60.0808 22.7454 60.2215 22.7285L69.8151 20.2736C69.9164 20.2473 70.0241 20.2624 70.1142 20.3156C70.2044 20.3687 70.2696 20.4556 70.2956 20.5569C70.3217 20.6571 70.3064 20.7636 70.253 20.8524C70.1997 20.9412 70.1128 21.0048 70.012 21.029L60.4184 23.4917L60.316 23.5153Z" fill="#D1D3D4"/>
</svg>
